<?xml version="1.0"?><svg width="333.70666666666665" height="455.8533333333333" xmlns="http://www.w3.org/2000/svg">
 <metadata id="metadata7">image/svg+xml</metadata>

 <g>
  <title>Layer 1</title>
  <path fill="#00007f" fill-rule="evenodd" stroke-width="1.0000004pt" id="path2043" d="m58.95454,347.233948c-67.992081,-104.383072 14.105549,-113.705475 -6.835709,-256.609924c51.357418,67.416946 65.695728,150.111374 87.256443,174.570007c14.880341,19.208588 22.219193,42.394897 20.218491,66.217255c-0.201736,18.853668 23.625092,41.698303 17.109802,59.300507c-34.64389,-27.748779 -94.232521,-9.662262 -117.749027,-43.477844z"/>
  <path fill="#00007f" fill-rule="evenodd" stroke-width="1.0000002pt" id="path2041" d="m161.780899,377.713684c0.393036,-19.990234 -23.796158,-28.662384 -33.526215,-44.274475c-16.114708,-11.924957 -21.219292,-30.486847 -21.574982,-48.765839c-1.309799,-29.233673 24.74826,-203.54258 62.711121,-250.35614c-14.548401,71.885963 21.569031,167.642517 43.882858,199.320786c15.099564,24.613571 20.776245,52.952744 15.337296,80.837692c-2.672226,22.247223 -21.10112,35.615326 -31.070511,55.569061c-9.972519,12.016785 -23.544098,13.155334 -35.759567,7.668915z"/>
  <path fill="#00007f" fill-rule="evenodd" stroke-width="1.0000002pt" id="path2063" d="m175.560699,387.492584c5.786621,-17.367035 -5.664856,-44.894958 -9.27092,-61.002228c-9.783325,-14.503784 -8.837967,-32.016144 -4.125595,-48.077728c6.936722,-25.875122 8.081924,-147.980865 120.025116,-205.321892c-86.817535,85.18264 -29.17041,154.410896 -19.772308,187.745506c5.490479,25.333252 2.683807,51.737152 -9.697479,74.519806c-17.093628,31.453796 -62.733078,48.789246 -77.158813,52.136536z"/>
  <path fill="#007fff" fill-rule="evenodd" stroke-width="1.0000000pt" id="path1305" d="m157.115952,377.31308c0.297287,-16.319763 -17.998978,-23.399536 -25.358612,-36.14505c-12.188858,-9.735382 -16.049866,-24.889008 -16.318909,-39.811737c-0.990707,-23.865967 23.325745,-150.046127 42.82692,-204.387222c-13.307449,123.179276 20.921021,136.860992 37.798782,162.722672c11.421021,20.094177 15.714767,43.229889 11.600845,65.994751c-2.021225,18.162323 -10.733963,34.71701 -18.274628,51.006958c-7.543015,9.810333 -23.034851,5.098663 -32.274399,0.619629z"/>
  <path fill="#007fff" fill-rule="evenodd" stroke-width="1.0000004pt" id="path2061" d="m86.962914,353.926514c-69.840643,-71.70462 6.256737,-76.698273 -13.112495,-175.174698c23.002991,46.416595 42.077881,81.285751 50.45385,114.24382c12.395378,11.638062 55.225288,82.682953 52.658348,95.563538c-26.992249,-15.366669 -69.889694,-13.985931 -89.999702,-34.63266z"/>
  <path fill="#aaffff" fill-rule="evenodd" stroke-width="1.0000004pt" id="path2051" d="m100.909927,349.609009c-41.778397,-39.659393 -10.578407,-62.944946 -10.951668,-112.479843c11.549271,43.352737 48.07975,54.035019 47.610725,80.077652c6.034912,7.790283 37.634308,63.344574 34.991943,70.483337c-14.050232,-11.253845 -55.821762,-23.054779 -71.651001,-38.081146z"/>
  <path fill="#007fff" fill-rule="evenodd" stroke-width="1.0000002pt" id="path2045" d="m168.064667,344.263855c-7.340393,-10.882141 -6.631104,-24.021606 -3.095428,-36.07254c5.204605,-19.414001 28.071335,-127.324036 60.738098,-150.794861c-23.591034,44.360275 7.429855,112.596527 14.481201,137.607361c4.119492,19.007446 5.271652,41.489868 -7.27597,55.911926c-18.955414,21.787079 -42.881821,34.475067 -56.289993,37.517059c-8.523651,5.981537 -5.852295,-32.08371 -8.557907,-44.168945z"/>
  <path fill="#aaffff" fill-rule="evenodd" stroke-width="0.99999981pt" id="path1310" d="m156.262634,378.507538c0.589859,-9.984375 -10.435165,-14.776245 -14.622604,-22.763641c-7.219376,-6.265137 -9.204575,-15.639496 -8.996368,-24.782684c-0.010147,-14.63678 -0.509583,-105.87648 18.025986,-128.557938c-8.203934,35.656097 22.691437,88.807907 32.378586,105.063583c6.490387,12.588165 8.541061,26.860352 5.4534,40.695404c-1.691391,11.069427 -7.439529,20.987366 -12.463409,30.772491c-4.863419,5.817902 -14.230591,2.546021 -19.775589,-0.427216z"/>
  <path fill="#aaffff" fill-rule="evenodd" stroke-width="0.99999981pt" id="path2047" d="m165.079712,379.782837c4.745773,-6.950439 -1.137543,-15.179047 -0.703583,-22.75531c-2.499344,-7.645203 0.124054,-15.269562 4.230438,-21.778046c6.32576,-10.567627 17.44223,-89.101395 40.633118,-97.450394c-21.348541,22.183029 15.723618,81.494766 15.681213,97.417831c-0.762634,11.893066 -15.230118,27.966553 -23.444641,36.615234c-6.010239,7.256897 -17.904892,14.230774 -25.76445,19.118866c-6.027206,-3.663849 -7.916779,-6.623199 -10.632095,-11.168182z"/>
  <path fill="#ffffff" fill-rule="evenodd" stroke-width="1.0000011pt" id="path2049" d="m156.079498,370.834778c-14.756073,-23.241425 -9.281525,-49.170258 -3.006332,-77.451172c2.858627,19.189178 14.766617,42.475677 21.49823,50.112061c4.645889,5.997253 6.937195,13.236389 6.312546,20.674133c-0.062988,5.886414 -3.051254,13.01889 -5.085434,18.514587c-10.816391,-8.663635 -12.37677,-1.29184 -19.719009,-11.849609z"/>
  <path fill="#ffffff" fill-rule="evenodd" stroke-width="1.0000011pt" id="path2065" d="m173.667419,360.307526c11.431229,-25.044617 0.114914,-44.761444 26.314117,-64.408966c-7.823578,18.214691 10.069717,46.975555 8.122726,56.948456c-3.274277,16.771606 -25.885086,29.254425 -31.60083,30.547058c1.36171,-13.79126 -7.680237,-11.174011 -2.836014,-23.086548z"/>
  <path fill="#ffffff" fill-rule="evenodd" stroke-width="1.0000011pt" id="path2067" d="m92.049538,278.336884c61.453239,77.716003 60.095009,38.48053 84.464928,105.037292c-116.158695,-51.717194 -64.025955,-47.049194 -84.464928,-105.037292z"/>
 </g>
</svg>