<?xml version="1.0" encoding="iso-8859-1"?>
<!-- Generator: Adobe Illustrator 19.0.0, SVG Export Plug-In . SVG Version: 6.00 Build 0)  -->
<svg version="1.1" id="Capa_1" xmlns="http://www.w3.org/2000/svg" xmlns:xlink="http://www.w3.org/1999/xlink" x="0px" y="0px"
	 viewBox="0 0 511.886 511.886" style="enable-background:new 0 0 511.886 511.886;" xml:space="preserve">
<g>
	<g>
		<path style="fill:#E57E25;" d="M231.312,53.702L4.134,428.516c-5.361,8.871-5.519,19.944-0.413,28.964
			c5.105,9.02,14.68,14.585,25.045,14.556H483.12c10.365,0.029,19.939-5.535,25.045-14.556c5.105-9.02,4.947-20.093-0.413-28.964
			L280.574,53.702c-5.229-8.601-14.566-13.852-24.631-13.852C245.877,39.85,236.54,45.101,231.312,53.702z"/>
		<path style="fill:#F0C419;" d="M48.571,423.323L248.394,93.642c1.6-2.64,4.462-4.252,7.549-4.252c3.087,0,5.949,1.612,7.549,4.252
			l199.823,329.681c1.652,2.726,1.707,6.131,0.142,8.908c-1.564,2.777-4.504,4.495-7.691,4.496H56.12
			c-3.187,0-6.127-1.718-7.691-4.496C46.865,429.453,46.919,426.048,48.571,423.323z"/>
	</g>
	<path style="fill:#C03A2B;" d="M269.096,436.461c2.825,0.177,4.855,0.177,5.914,0.265h0.794
		c42.526-0.646,76.79-35.066,77.241-77.595c0-45.55-94.985-76.005-79.095-151.923c-39.548,37.164-70.532,96.397-70.532,141.948
		c0,2.737,0.177,5.473,0.441,8.121c-16.607-0.455-32.532-6.7-45.021-17.655c0,69.738,60.381,89.423,94.367,94.897"/>
	<path style="fill:#F18D46;" d="M264.771,321.967c17.655,18.576,35.31,53.169,35.31,75.955c0.908,20.446-14.87,37.785-35.31,38.803
		c-20.44-1.019-36.219-18.358-35.31-38.803C229.46,375.136,271.833,359.945,264.771,321.967z"/>
</g>
<g>
</g>
<g>
</g>
<g>
</g>
<g>
</g>
<g>
</g>
<g>
</g>
<g>
</g>
<g>
</g>
<g>
</g>
<g>
</g>
<g>
</g>
<g>
</g>
<g>
</g>
<g>
</g>
<g>
</g>
</svg>
